<?xml version="1.0" encoding="UTF-8" standalone="no"?>
<svg
   xmlns:dc="http://purl.org/dc/elements/1.1/"
   xmlns:cc="http://creativecommons.org/ns#"
   xmlns:rdf="http://www.w3.org/1999/02/22-rdf-syntax-ns#"
   xmlns:svg="http://www.w3.org/2000/svg"
   xmlns="http://www.w3.org/2000/svg"
   xmlns:sodipodi="http://sodipodi.sourceforge.net/DTD/sodipodi-0.dtd"
   xmlns:inkscape="http://www.inkscape.org/namespaces/inkscape"
   version="1.1"
   id="Layer_1"
   x="0px"
   y="0px"
   viewBox="0 0 199.99999 239.99998"
   xml:space="preserve"
   sodipodi:docname="about_button_icon.svg"
   width="150pt"
   height="180pt"
   inkscape:version="1.0beta1 (32d4812, 2019-09-19)">
  <style
   id="style18"></style>

  <metadata
   id="metadata5305">
    <rdf:RDF>
      <cc:Work
   rdf:about="">
        <dc:format>image/svg+xml</dc:format>

        <dc:type
   rdf:resource="http://purl.org/dc/dcmitype/StillImage" />

        <dc:title></dc:title>

      </cc:Work>

    </rdf:RDF>

  </metadata>

  <defs
   id="defs5303" />

  <sodipodi:namedview
   pagecolor="#ffffff"
   bordercolor="#666666"
   borderopacity="1"
   objecttolerance="10"
   gridtolerance="10"
   guidetolerance="10"
   inkscape:pageopacity="0"
   inkscape:pageshadow="2"
   inkscape:window-width="1280"
   inkscape:window-height="709"
   id="namedview5301"
   showgrid="false"
   units="pt"
   inkscape:zoom="0.35"
   inkscape:cx="400"
   inkscape:cy="560"
   inkscape:window-x="1605"
   inkscape:window-y="123"
   inkscape:window-maximized="0"
   inkscape:current-layer="Layer_1"
   inkscape:document-rotation="0" />

  <path
   style="fill:#39a9db;stroke-width:0.122296"
   d="M 99.999886,13.333333 A 86.666648,86.66667 0 0 0 13.333336,99.999807 86.666648,86.66667 0 0 0 99.999886,186.66666 86.666648,86.66667 0 0 0 186.66666,99.999807 86.666648,86.66667 0 0 0 99.999886,13.333333 Z m 0.007,37.68688 h 1.71406 c 3.59955,0 58.68768,15.193624 58.68768,15.193624 0,0 -45.45984,44.945303 -60.889723,60.355113 -10.159886,-3.73399 -19.782135,-7.18497 -30.105903,-10.75828 9.793121,4.10241 20.311603,7.4438 30.231553,11.42232 20.837693,-20.09371 41.702783,-40.080827 61.892433,-60.824283 0.96663,2.210521 -1.88245,3.215941 -1.86692,5.425032 -19.52143,18.744835 -39.43192,37.403091 -58.27278,56.825481 -0.7641,0.58162 -1.796683,2.04633 -2.316203,2.28618 -1.01408,0.46813 -56.675784,-20.25946 -56.185376,-20.27493 -1.067158,-0.4719 -2.573072,-0.5265 -3.955999,-0.078 -2.094571,1.83612 -1.817464,6.52262 -0.656627,8.229 2.943306,4.32679 10.753084,7.31458 18.321759,10.12362 14.676546,5.44973 45.996216,15.73936 46.030226,16.56226 19.806,-19.03096 59.07325,-60.234727 58.42373,-60.537887 0.74234,-0.0663 3.94143,0.90961 3.94143,1.71236 0,0.57239 -0.64686,0.843181 -0.74285,0.843181 -20.15713,23.373616 -40.56945,44.121356 -60.82404,61.454646 -0.0928,0 -31.824415,-11.8651 -46.926429,-17.58367 -9.821129,-3.7219 -21.506718,-5.60794 -21.506718,-16.72684 v -3.9988 c 0,-1.13061 0.21179,-2.07116 0.663553,-3.14314 3.363271,-3.54419 44.92242,-40.804153 53.207502,-48.501325 2.723916,-2.53526 7.893589,-8.005792 11.135642,-8.005792 z M 86.060546,133.80098 c 2.201342,0.37115 3.961555,1.17845 5.997303,1.71379 -0.85241,-0.67132 -1.941446,-1.10448 -2.854137,-1.71379 3.916783,0.36504 8.357687,2.67904 12.277398,3.99542 0.16558,0.50271 0.28627,1.41154 0.28616,1.71236 -5.154051,-0.74555 -10.354546,-3.92301 -15.706724,-5.42334 -0.566111,-0.26 0,-0.28444 0,-0.28444 z"
   id="circle5292"
   inkscape:connector-curvature="0" />

  <g
   id="g5298"
   transform="translate(0,-1243.9898)" />

</svg>
